<?xml version="1.0" encoding="utf-8"?>
<svg xmlns="http://www.w3.org/2000/svg">
<symbol id="24-7" viewBox="0 0 612 612"><path d="M339.296 19.573c-92.187 0-173.778 46.021-223.165 116.25 10.221 6.668 20.184 15.812 29.82 27.567 36.844-55.091 96.417-93.743 165.344-102.052l27.997 47.377 27.997-47.378c105.952 12.769 190.17 96.983 202.945 202.934l-47.385 28.001 47.386 28.002c-8.54 70.836-49.108 131.821-106.661 168.372 3.666 8.357 5.731 16.902 6.096 25.712.269 6.438-.395 12.521-1.73 18.296C553.609 486.622 612 396.153 612 292.277c0-150.373-122.331-272.704-272.704-272.704zm69.591 449.117c-62.865-50.523-80.444-25.688-108.968 2.832-19.914 19.921-70.308-21.678-113.821-65.193-43.516-43.521-85.107-93.907-65.195-113.824 28.526-28.521 53.354-46.11 2.817-108.958-50.52-62.871-84.198-14.603-111.829 13.03-31.9 31.889-1.681 150.726 115.769 268.194 117.466 117.452 236.302 147.651 268.183 115.774 27.628-27.634 75.91-61.308 13.044-111.855zM217.426 334.954c0-55.88 65.42-65.835 65.42-87.641 0-10.581-8.47-15.023-16.304-15.023-14.397 0-22.434 16.083-22.434 16.083l-27.521-18.415s13.973-32.6 53.346-32.6c24.766 0 51.65 14.185 51.65 46.36 0 47.208-60.968 56.314-62.028 75.789h64.36v31.751H219.123c-1.061-5.926-1.697-11.215-1.697-16.304zm121.965-42.755 58.434-92.305h45.301v84.047h17.991v30.691h-17.991v36.628h-36.628v-36.628h-67.106v-22.433h-.001zm67.106-8.259v-33.871c0-8.258 1.272-16.94 1.272-16.94h-.424s-3.171 9.318-7.41 15.669l-22.857 34.72v.424l29.419-.002z"/>
</symbol>
<symbol id="application" viewBox="0 0 512 512"><path d="M414.007 148.75c5.522 0 10-4.477 10-10V30c0-16.542-13.458-30-30-30h-364c-16.542 0-30 13.458-30 30v452c0 16.542 13.458 30 30 30h364c16.542 0 30-13.458 30-30v-73.672c0-5.523-4.478-10-10-10s-10 4.477-10 10V482c0 5.514-4.486 10-10 10h-364c-5.514 0-10-4.486-10-10V30c0-5.514 4.486-10 10-10h364c5.514 0 10 4.486 10 10v108.75c0 5.523 4.478 10 10 10z"/><path d="M212.007 54c-50.729 0-92 41.271-92 92 0 26.317 11.11 50.085 28.882 66.869.333.356.687.693 1.074 1 16.371 14.979 38.158 24.13 62.043 24.13 23.885 0 45.672-9.152 62.043-24.13a9.993 9.993 0 0 0 1.074-1c17.774-16.784 28.884-40.552 28.884-66.869 0-50.729-41.271-92-92-92zm0 164c-16.329 0-31.399-5.472-43.491-14.668 8.789-15.585 25.19-25.332 43.491-25.332s34.702 9.747 43.491 25.332C243.405 212.528 228.336 218 212.007 218zm-16-76v-6.5c0-8.822 7.178-16 16-16s16 7.178 16 16v6.5c0 8.822-7.178 16-16 16s-16-7.178-16-16zm73.94 46.683a69.375 69.375 0 0 0-29.463-24.697c4.71-6.087 7.523-13.712 7.523-21.986v-6.5c0-19.851-16.149-36-36-36s-36 16.149-36 36v6.5c0 8.274 2.813 15.899 7.523 21.986a69.375 69.375 0 0 0-29.463 24.697c-8.829-11.953-14.06-26.716-14.06-42.683 0-39.701 32.299-72 72-72s72 32.299 72 72c0 15.967-5.231 30.73-14.06 42.683zM266.007 438h-54c-5.522 0-10 4.477-10 10s4.478 10 10 10h54c5.522 0 10-4.477 10-10s-4.478-10-10-10zM266.007 382h-142c-5.522 0-10 4.477-10 10s4.478 10 10 10h142c5.522 0 10-4.477 10-10s-4.478-10-10-10zM266.007 326h-142c-5.522 0-10 4.477-10 10s4.478 10 10 10h142c5.522 0 10-4.477 10-10s-4.478-10-10-10zM88.366 272.93a10.077 10.077 0 0 0-7.079-2.93c-2.631 0-5.211 1.07-7.07 2.93-1.86 1.86-2.93 4.44-2.93 7.07s1.069 5.21 2.93 7.07a10.092 10.092 0 0 0 7.07 2.93c2.64 0 5.21-1.07 7.079-2.93 1.86-1.86 2.931-4.44 2.931-7.07s-1.07-5.21-2.931-7.07zM88.366 328.93a10.095 10.095 0 0 0-7.079-2.93c-2.631 0-5.2 1.07-7.07 2.93-1.86 1.86-2.93 4.44-2.93 7.07s1.069 5.21 2.93 7.07a10.092 10.092 0 0 0 7.07 2.93c2.64 0 5.21-1.07 7.079-2.93 1.86-1.86 2.931-4.44 2.931-7.07s-1.07-5.21-2.931-7.07zM88.366 384.93a10.095 10.095 0 0 0-7.079-2.93c-2.631 0-5.2 1.07-7.07 2.93-1.86 1.86-2.93 4.44-2.93 7.07s1.069 5.21 2.93 7.07a10.072 10.072 0 0 0 7.07 2.93c2.64 0 5.22-1.07 7.079-2.93 1.86-1.86 2.931-4.44 2.931-7.07s-1.07-5.21-2.931-7.07zM266.007 270h-142c-5.522 0-10 4.477-10 10s4.478 10 10 10h142c5.522 0 10-4.477 10-10s-4.478-10-10-10zM491.002 130.32c-9.715-5.609-21.033-7.099-31.871-4.196-10.836 2.904-19.894 9.854-25.502 19.569L307.787 363.656a10.016 10.016 0 0 0-1.278 3.891l-8.858 79.344a10.004 10.004 0 0 0 9.937 11.11 9.99 9.99 0 0 0 5.931-1.948l64.284-47.344a9.983 9.983 0 0 0 2.73-3.052l125.841-217.963c11.58-20.056 4.684-45.794-15.372-57.374zM320.063 426.394l4.626-41.432 28.942 16.71-33.568 24.722zm48.15-39.398-38.105-22 100.985-174.91 38.105 22-100.985 174.91zm120.841-209.303-9.857 17.073-38.105-22 9.857-17.073a21.855 21.855 0 0 1 13.358-10.25 21.85 21.85 0 0 1 16.694 2.198 21.855 21.855 0 0 1 10.25 13.358 21.856 21.856 0 0 1-2.197 16.694z"/>
</symbol>
<symbol id="checkbox" viewBox="0 0 489 489"><path d="M0 437.825v-345.6c0-13.5 10.9-24.4 24.4-24.4h306.4l-48.7 48.7H48.7v296.9h296.9v-126.1l48.7-48.7v199.2c0 13.4-10.9 24.4-24.4 24.4H24.4c-13.5 0-24.4-10.9-24.4-24.4zm212.1-187-52-52c-14.6-14.6-38.3-14.6-52.9 0-7.1 7.1-11 16.5-11 26.5s3.9 19.4 11 26.4l78.4 78.4c14.6 14.6 38.3 14.6 52.9 0L478 90.625c7.1-7.1 11-16.5 11-26.4 0-10-3.9-19.4-11-26.5-14.6-14.6-38.3-14.6-52.9 0l-213 213.1z"/>
</symbol>
<symbol id="contract" viewBox="0 0 480.082 480"><path d="M479.2 113.8A23.995 23.995 0 0 0 468 99.243a24.006 24.006 0 0 0-18.238-2.402 24.006 24.006 0 0 0-14.563 11.2l-4 6.96a8 8 0 0 0-10.879 2.883L400 152.52l-6.96-4a8.009 8.009 0 0 0-6.095-.801 8.023 8.023 0 0 0-4.867 3.761c-2.168 3.825-.848 8.684 2.961 10.88l6.961 4-68 117.84-16.8 44.882-8 14.957a24.002 24.002 0 0 0 1.28 25.922l-18 22.078-5.039-12.637a15.996 15.996 0 0 0-13.586-9.965 15.997 15.997 0 0 0-14.976 7.723L246 382.04l-2.719-32a16.007 16.007 0 0 0-14.027-14.571 16.004 16.004 0 0 0-17.094 10.812l-19.68 59.04a8 8 0 0 0 5.04 10.081 6.927 6.927 0 0 0 2.48.637 8 8 0 0 0 7.602-5.437l19.597-59.04L230 384.04a16 16 0 0 0 29.68 6.883l2.96-4.883 4.962 12.563a15.996 15.996 0 0 0 27.359 4.078l18.64-23.598a24.64 24.64 0 0 0 6.32.8 24.002 24.002 0 0 0 20.88-11.843l8-13.36 30.48-37.038L448 198.359l6.96 4a7.996 7.996 0 0 1 3.759 4.883 7.986 7.986 0 0 1-.797 6.078l-32 55.442a7.99 7.99 0 0 0 2.558 11.277 7.993 7.993 0 0 0 10.961-2.957l32-55.441a23.987 23.987 0 0 0 2.399-18.239 24.006 24.006 0 0 0-11.2-14.562l-6.96-4 20-34.64c2.183-3.802.898-8.653-2.88-10.88l4-6.96a23.992 23.992 0 0 0 2.4-18.56zm-30.16 2.24a7.999 7.999 0 0 1 4.882-3.759 8.4 8.4 0 0 1 6.078.801 8.008 8.008 0 0 1 3.762 4.879 8.4 8.4 0 0 1-.801 6.078l-4 6.961-13.922-8zM340 339.401l-4-2.32-11.84-6.883 11.36-30.398 25.199 14.558zm-24 23.118a7.995 7.995 0 0 1-2.398-10.48l4-6.958 13.918 8-4 6.879a8 8 0 0 1-5.196 3.816A8.005 8.005 0 0 1 316 362.52zm53.84-61.278-27.68-16 64-110.883 27.68 16zm72-124.722-27.68-16 16-27.68 27.68 16zM126.238 358.52l-28.316 28.242L80.96 369.8a8.002 8.002 0 0 0-11.281 0 7.999 7.999 0 0 0 0 11.36l16.96 16.96c3 2.977 7.055 4.645 11.282 4.64 4.25.024 8.34-1.644 11.36-4.64l28.238-28.32a8.001 8.001 0 0 0-11.281-11.281zm0 0"/><path d="M32 380.04c0 37.558 30.445 68 68 68s68-30.442 68-68a8 8 0 0 0-16 0c0 28.718-23.281 52-52 52s-52-23.282-52-52 23.281-52 52-52a51.547 51.547 0 0 1 31.2 10.401 7.997 7.997 0 0 0 11.198-1.601 7.997 7.997 0 0 0-1.597-11.2A68 68 0 0 0 32 380.039zM288 64.04a8 8 0 0 0 0-16H80a8 8 0 0 0-8 8v32c0 4.42 3.582 8 8 8h208a8 8 0 0 0 0-16H88v-16zM104 112.04a8 8 0 0 0 0 16h160a8 8 0 0 0 0-16zM312 168.04H136a8 8 0 0 0 0 16h176a8 8 0 0 0 0-16zM232 224.04a8 8 0 0 0-8-8H64a8 8 0 0 0 0 16h160c4.418 0 8-3.58 8-8zM312 216.04h-56a8 8 0 0 0 0 16h56a8 8 0 0 0 0-16zM144 272.04a8 8 0 0 0 0-16H64a8 8 0 0 0 0 16zM176 272.04h56a8 8 0 0 0 0-16h-56a8 8 0 0 0 0 16zm0 0"/><path d="M360 368.04a8 8 0 0 0-8 8v80c0 4.42-3.582 8-8 8H24c-4.418 0-8-3.58-8-8v-432a8 8 0 0 1 8-8h320a8 8 0 0 1 8 8V174.28a8 8 0 0 0 16 0V24.04c0-13.254-10.746-24-24-24H24c-13.254 0-24 10.746-24 24v432c0 13.258 10.746 24 24 24h320c13.254 0 24-10.742 24-24v-80a8 8 0 0 0-8-8zm0 0"/>
</symbol>
<symbol id="house" viewBox="0 0 463.937 463.937"><path d="m460.414 216.518-85.6-73.1c.1-.5.2-1 .3-1.6v-95.6c-.1-5.7-4.6-10.3-10.3-10.5h-47.8c-5.5 0-10 4.9-10 10.5v39.6l-68.5-58.4c-3.7-3.2-9.2-3.2-13 0l-221.9 189c-4.3 3.5-4.8 9.8-1.3 14.1s9.8 4.8 14.1 1.3l.2-.2 215.4-183.4 77.1 65.7 46.1 39.2 92.3 78.6c4.2 3.6 10.5 3.1 14.1-1.1 3.5-4.2 3-10.5-1.2-14.1zm-105.4-90-28-23.6v-47.1h28v70.7z"/><path d="m416.314 236.718-28.1-24-149.7-127.9c-3.7-3.2-9.2-3.2-13 0l-149.7 127.9-28.1 24c-4.2 3.6-4.7 9.9-1.1 14.1 3.5 4.2 9.7 4.7 13.8 1.2l.1-.1 12.5-10.8v187.5c.1 5.6 4.7 10.2 10.3 10.3h297.3c5.6-.1 10.2-4.6 10.3-10.3v-187.5l12.5 10.8c1.8 1.5 4 2.4 6.4 2.4 2.9 0 5.7-1.3 7.6-3.5 3.7-4.3 3.1-10.6-1.1-14.1zm-144.3 182.1h-80v-108h80v108zm20 0v-117.7c0-5.5-4.1-10.3-9.6-10.3h-100.8c-5.5 0-9.6 4.8-9.6 10.3v117.7h-79v-194.8l139-118.4 139 118.4v194.8h-79z"/>
</symbol>
<symbol id="info" viewBox="0 0 512 512"><path d="M290.211 360.727a24.896 24.896 0 0 1-15.011-3.375 15.593 15.593 0 0 1-4.305-12.8 66.49 66.49 0 0 1 1.396-11.636c.781-4.394 1.79-8.744 3.025-13.033l13.731-47.244a71.535 71.535 0 0 0 2.793-14.313c0-5.236.698-8.844.698-10.938a30.602 30.602 0 0 0-10.822-24.32 45.5 45.5 0 0 0-30.72-9.309 79.72 79.72 0 0 0-23.273 3.84c-8.223 2.56-16.873 5.624-25.949 9.193l-3.956 15.36c2.676-.931 5.935-1.978 9.658-3.142a39.572 39.572 0 0 1 10.938-1.629 22.343 22.343 0 0 1 14.778 3.607 16.875 16.875 0 0 1 3.84 12.684 55.19 55.19 0 0 1-1.28 11.636c-.815 4.073-1.862 8.378-3.142 12.916L218.763 325.7a135.651 135.651 0 0 0-2.676 13.382 83.118 83.118 0 0 0-.815 11.636 30.369 30.369 0 0 0 11.636 24.087 46.55 46.55 0 0 0 31.185 9.542 71.78 71.78 0 0 0 23.273-3.375c6.594-2.25 15.399-5.469 26.415-9.658l3.724-14.662a64.283 64.283 0 0 1-9.193 3.025 44.19 44.19 0 0 1-12.101 1.05zM304.756 136.727A33.163 33.163 0 0 0 281.483 128a33.396 33.396 0 0 0-23.273 8.727c-11.632 10.03-12.931 27.591-2.9 39.224a27.762 27.762 0 0 0 2.9 2.9c13.252 11.853 33.294 11.853 46.545 0 11.632-10.129 12.851-27.769 2.722-39.401a27.754 27.754 0 0 0-2.721-2.723z"/><path d="M256 0C114.615 0 0 114.615 0 256s114.615 256 256 256 256-114.615 256-256S397.385 0 256 0zm0 488.727C127.468 488.727 23.273 384.532 23.273 256S127.468 23.273 256 23.273 488.727 127.468 488.727 256 384.532 488.727 256 488.727z"/>
</symbol>
<symbol id="key" viewBox="0 -48 495.75 495"><path d="M29.75 399.977c-.8 0-1.602 0-2-.403-2-.398-4-2-4.8-4l-22-40.8c-2-4-.802-8.797 3.198-10.797l13.204-7.204-7.204-15.199c-1.597-3.597-.398-8 2.801-10l14.403-9.199-7.602-16c-1.602-3.602-.398-8 2.8-10l14.802-10-7.602-16.8c-.8-1.598-.8-3.598-.398-5.2l15.199-58c-24-22-33.602-56.8-24.403-90 6.403-22.8 21.204-42 42-53.602 20.801-11.597 44.403-14.398 67.602-8 47.2 13.204 74.8 62.403 61.2 109.602-9.2 33.602-36.802 60.398-68 66.8l-45.598 159.2c-.403 2-2 3.602-3.602 4.8l-40 23.2c-1.2 1.2-2.8 1.602-4 1.602zm-11.2-45.602 14.4 26.398 30-17.597 46-160.801c.8-3.2 3.6-5.2 6.402-5.602 27.199-3.597 51.597-26.796 60-56.398 10.796-38.8-11.602-78.8-50.403-89.602-18.8-5.199-38.398-2.796-55.199 6.403-16.8 9.597-29.2 25.199-34.398 43.597-8 28.403 1.199 58.403 23.199 76.403 2.398 2 3.597 5.199 2.8 8.398l-15.601 60 9.2 20.403c1.6 3.597.402 7.597-2.802 10l-14.796 9.597 7.597 15.602c1.602 3.597.403 8-2.8 10l-14.399 9.199 7.602 15.602c2 4 .398 8.398-3.204 10.398zm0 0"/><path d="M113.352 119.977c-2.403 0-5.204-.403-7.602-1.204-7.2-2-13.2-6.796-17.2-13.199-3.6-6.398-4.402-14-2.402-21.199 4.403-14.8 20-23.602 34.801-19.602 7.2 2 13.2 6.801 17.2 13.204 3.601 6.398 4.402 14 2.402 21.199-3.602 12.8-14.801 20.8-27.2 20.8zm0-40c-5.204 0-10.403 3.597-11.602 8.796-.8 3.204-.398 6.403 1.2 9.204 1.6 2.796 4.402 4.796 7.198 5.597 6.403 2 13.204-2 15.204-8.398.796-3.2.398-6.403-1.204-9.2-1.597-2.8-4.398-4.8-7.199-5.601-1.597-.398-2.398-.398-3.597-.398zM182.148 153.574c-17.199 0-33.199-5.597-46.796-16-3.602-2.8-4-7.597-1.602-11.199 2.8-3.602 7.602-4 11.2-1.602 10.8 8.403 23.6 12.403 37.198 12.403 10.801 0 21.602-2.801 30.801-8.403 4-2.398 8.801-.796 10.801 2.801 2.398 4 .8 8.801-2.8 10.801-11.598 7.602-25.2 11.2-38.802 11.2zm0 0"/><path d="M113.75 79.977h-.398c-4.403-.403-7.602-4-7.602-8.403 2.8-40 36.398-71.199 76.398-71.199 35.602 0 67.204 25.2 74.801 60.398.801 4.403-1.597 8.403-6 9.602-4.398.8-8.398-1.602-9.597-6-6-28.398-30.801-48.398-59.204-48.398-31.597 0-58.398 24.796-60.398 56.398-.398 4-4 7.602-8 7.602zm0 0"/><path d="M370.148 340.773c-2 0-4-.796-5.597-2.398l-136-136c-3.2-3.2-10.403-11.602-10.403-21.602l-8.398-88.398v-.8c0-10.802 3.2-18.802 10.398-26.4 7.204-7.198 15.204-10.402 24.403-10.402h2.8l88.399 8c10.398 0 18.398 7.602 21.602 10.403l136 136c3.199 3.199 3.199 8 0 11.199l-117.602 118c-1.2 1.602-3.2 2.398-5.602 2.398zM225.75 91.176l8.398 88.398v.801c0 3.2 2.403 7.2 6 10.8l130.403 130.4 106-106.4L346.148 84.774c-3.597-3.597-8-6-10.796-6h-.801l-90-8.398c-4.801 0-8.801 2-12.801 6-4.398 4.398-6 8.398-6 14.8zm0 0"/><path d="M309.75 200.375c-2 0-4-.8-5.602-2.398-3.199-3.204-3.199-8 0-11.204l38.801-38.796c3.2-3.204 8-3.204 11.2 0 3.203 3.199 3.203 8 0 11.199l-38.797 38.8c-1.602 1.598-3.602 2.399-5.602 2.399zM354.95 245.574c-2 0-4-.8-5.598-2.398-3.204-3.2-3.204-8 0-11.2l38.796-38.8c3.204-3.2 8-3.2 11.204 0 3.199 3.199 3.199 8 0 11.199l-38.801 38.8c-1.602 1.598-3.602 2.4-5.602 2.4zm0 0"/>
</symbol>
<symbol id="marketing" viewBox="0 -14 512 512"><path d="M136.965 308.234c4.781-2.757 6.418-8.879 3.66-13.66-2.762-4.777-8.879-6.418-13.66-3.66-4.781 2.762-6.422 8.883-3.66 13.66 2.757 4.781 8.879 6.422 13.66 3.66zm0 0"/><path d="m95.984 377.254 50.36 87.23c10.867 18.844 35.312 25.82 54.644 14.645 19.13-11.055 25.703-35.496 14.637-54.64l-30-51.97 25.98-15c4.782-2.765 6.422-8.878 3.66-13.66l-13.003-22.523c1.55-.3 11.746-2.3 191.539-37.57 22.226-1.207 35.543-25.516 24.316-44.95l-33.234-57.562 21.238-32.168a10.004 10.004 0 0 0 .317-10.512l-20-34.64a10.02 10.02 0 0 0-9.262-4.98l-38.473 2.308-36.894-63.907c-5.344-9.257-14.918-14.863-25.606-14.996-.129-.004-.254-.004-.383-.004-10.328 0-19.703 5.141-25.257 13.832L119.93 202.602l-84.926 49.03C1.602 270.91-9.97 313.763 9.383 347.255c17.68 30.625 54.953 42.672 86.601 30zm102.325 57.238c5.523 9.555 2.254 21.781-7.329 27.317-9.613 5.558-21.855 2.144-27.316-7.32l-50-86.614 34.64-20c57.868 100.242 49.075 85.012 50.005 86.617zm-22.684-79.297-10-17.32 17.32-10 10 17.32zm196.582-235.91 13.82 23.938-12.324 18.664-23.82-41.262zM267.289 47.152c2.684-4.39 6.941-4.843 8.668-4.797 1.707.02 5.961.551 8.527 4.997l116.313 201.464c3.789 6.559-.817 14.805-8.414 14.993-1.363.03-1.992.277-5.485.93L263.863 51.632c2.582-3.32 2.914-3.64 3.426-4.48zm-16.734 21.434 115.597 200.223-174.46 34.218-53.047-91.879zM26.703 337.254a49.933 49.933 0 0 1-6.71-24.95c0-17.835 9.585-34.445 25.01-43.35l77.942-45 50 86.6-77.941 45.005c-23.879 13.78-54.516 5.57-68.3-18.305zm0 0"/><path d="M105.984 314.574c-2.761-4.781-8.879-6.422-13.66-3.66l-17.32 10c-4.774 2.758-10.902 1.113-13.66-3.66-2.762-4.781-8.88-6.422-13.66-3.66s-6.422 8.879-3.66 13.66c8.23 14.258 26.59 19.285 40.98 10.98l17.32-10c4.781-2.761 6.422-8.875 3.66-13.66zM497.137 43.746l-55.723 31.008c-4.824 2.687-6.562 8.777-3.875 13.601 2.68 4.82 8.766 6.567 13.602 3.875l55.718-31.007c4.829-2.688 6.563-8.778 3.875-13.602-2.683-4.828-8.773-6.562-13.597-3.875zM491.293 147.316l-38.637-10.351c-5.336-1.43-10.82 1.734-12.25 7.07-1.43 5.336 1.739 10.817 7.074 12.246l38.641 10.352c5.367 1.441 10.824-1.774 12.246-7.07 1.43-5.336-1.738-10.82-7.074-12.247zM394.2 7.414l-10.364 38.64c-1.43 5.337 1.734 10.817 7.07 12.25 5.332 1.426 10.817-1.73 12.25-7.07l10.36-38.64c1.43-5.336-1.735-10.82-7.07-12.25-5.333-1.43-10.817 1.734-12.247 7.07zm0 0"/>
</symbol>
<symbol id="mobile-banking"><path d="M385.185 145.859a23.719 23.719 0 0 0-17.185-.525V40a24.027 24.027 0 0 0-24-24H168a24.027 24.027 0 0 0-24 24v154.452a30.433 30.433 0 0 0-13.657 7.891l-43.314 43.314A23.843 23.843 0 0 0 80 262.627v68.118a23.838 23.838 0 0 1-7.03 16.97l-62.627 62.628 11.314 11.314 62.626-62.627A39.734 39.734 0 0 0 96 330.745v-68.118a7.947 7.947 0 0 1 2.344-5.657l43.312-43.313a14.627 14.627 0 1 1 20.687 20.686l-27.314 27.314a23.843 23.843 0 0 0-7.029 16.97v28.687l10.911 10.911A71.528 71.528 0 0 1 160 369.137V392a24.027 24.027 0 0 0 24 24h20.687l-8.97 8.97a23.848 23.848 0 0 1-16.972 7.03h-13.49a39.744 39.744 0 0 0-28.285 11.716l-46.627 46.627 11.314 11.314 46.626-46.627a23.848 23.848 0 0 1 16.972-7.03h13.49a39.744 39.744 0 0 0 28.285-11.716L227.314 416H344a24.027 24.027 0 0 0 24-24v-38.525a24.235 24.235 0 0 0 8.97-5.727l16-16a23.842 23.842 0 0 0 7.03-16.97v-2.746a23.588 23.588 0 0 0-13.666-21.648l6.636-6.636a23.842 23.842 0 0 0 7.03-16.97v-2.746a23.588 23.588 0 0 0-13.666-21.648l6.636-6.636a23.842 23.842 0 0 0 7.03-16.97v-2.746a23.588 23.588 0 0 0-13.666-21.648l6.636-6.636a23.842 23.842 0 0 0 7.03-16.97v-2.746a23.629 23.629 0 0 0-14.815-22.173ZM309.755 32l-2.485 9.94a7.99 7.99 0 0 1-7.762 6.06h-87.016a7.99 7.99 0 0 1-7.762-6.06L202.246 32ZM352 392a8.01 8.01 0 0 1-8 8H184a8.01 8.01 0 0 1-8-8v-22.863a87.424 87.424 0 0 0-25.774-62.225L144 300.687v-22.06a7.947 7.947 0 0 1 2.344-5.657l27.312-27.313A30.603 30.603 0 0 0 160 194.452V40a8.01 8.01 0 0 1 8-8h17.754l3.455 13.821A23.967 23.967 0 0 0 212.492 64h87.016a23.966 23.966 0 0 0 23.283-18.18L326.246 32H344a8.01 8.01 0 0 1 8 8v118.091l-8.97 8.97a23.842 23.842 0 0 0-7.03 16.971v2.745a23.588 23.588 0 0 0 13.666 21.648l-6.636 6.636a23.842 23.842 0 0 0-7.03 16.971v2.745a23.588 23.588 0 0 0 13.666 21.648l-6.636 6.636a23.842 23.842 0 0 0-7.03 16.971v2.745a23.588 23.588 0 0 0 13.666 21.648l-6.636 6.636a23.842 23.842 0 0 0-7.03 16.971v2.745a23.629 23.629 0 0 0 14.815 22.174q.59.244 1.185.455Zm32-77.223a7.946 7.946 0 0 1-2.344 5.657l-16 16A8 8 0 0 1 352 330.777v-2.745a7.946 7.946 0 0 1 2.344-5.657l16-16a7.602 7.602 0 0 1 5.511-2.367 8.608 8.608 0 0 1 3.206.633 7.847 7.847 0 0 1 4.939 7.391Zm0-48a7.946 7.946 0 0 1-2.344 5.657l-16 16A8 8 0 0 1 352 282.777v-2.745a7.946 7.946 0 0 1 2.344-5.657l16-16a7.602 7.602 0 0 1 5.511-2.367 8.608 8.608 0 0 1 3.206.633 7.847 7.847 0 0 1 4.939 7.391Zm0-48a7.946 7.946 0 0 1-2.344 5.657l-16 16A8 8 0 0 1 352 234.777v-2.745a7.946 7.946 0 0 1 2.344-5.657l16-16a7.602 7.602 0 0 1 5.511-2.367 8.608 8.608 0 0 1 3.206.633 7.847 7.847 0 0 1 4.939 7.391Zm0-48a7.946 7.946 0 0 1-2.344 5.657l-16 16A8 8 0 0 1 352 186.777v-2.745a7.946 7.946 0 0 1 2.344-5.657l16-16a7.602 7.602 0 0 1 5.511-2.367 8.608 8.608 0 0 1 3.206.633 7.847 7.847 0 0 1 4.939 7.391Z"/><path d="M192 162.725V192h8v56h-8v48h128v-48h-8v-56h8v-29.275l-64-27.429ZM304 280h-96v-16h96Zm-88-32v-56h16v56Zm32 0v-56h16v56Zm32 0v-56h16v56Zm24-72h-96v-2.725l48-20.571 48 20.571ZM426.628 187.001a184.699 184.699 0 0 1 0 137.998L441.46 331a200.709 200.709 0 0 0 0-150.002ZM478.13 164.964l-14.803 6.072a224.822 224.822 0 0 1 0 169.928l14.803 6.072a240.819 240.819 0 0 0 0-182.072ZM85.371 187.002l-14.83-6.004a198.887 198.887 0 0 0-13.856 58.344l15.945 1.316a182.918 182.918 0 0 1 12.741-53.656ZM48.673 340.964a224.822 224.822 0 0 1 0-169.928l-14.803-6.072a240.819 240.819 0 0 0 0 182.072Z"/>
</symbol>
<symbol id="money" viewBox="0 0 407.534 407.534"><path d="m406.962 226.838-.002-.005-76.944-193.2a8 8 0 0 0-10.391-4.476l-.009.004L7.464 153.457a7.84 7.84 0 0 0-3.2 2.544A7.91 7.91 0 0 0 0 162.945v208a8 8 0 0 0 8 8h336a8 8 0 0 0 8-8v-113.6l50.496-20.112a8 8 0 0 0 4.466-10.395zM336 362.945H16v-192h320v192zm-202.52-207.96 133.952-53.376a63.648 63.648 0 0 0 45.864 19.776l13.36 33.6H133.48zM352 240.161v-77.216a8 8 0 0 0-8-8h-.128l-16.952-42.576a6.623 6.623 0 0 0-.656-1.008 7.904 7.904 0 0 0-8.36-6.16 47.84 47.84 0 0 1-41.944-18.064 7.929 7.929 0 0 0-10.264-1.792 8.99 8.99 0 0 0-1.128.208l-163.536 65.12a7.903 7.903 0 0 0-4.392 4.272H46.976l271.136-107.96 71.032 178.36L352 240.161z"/><path d="M37.712 308.937a47.834 47.834 0 0 1 32.296 32.256 8 8 0 0 0 7.664 5.712 7.328 7.328 0 0 0 1.232-.184c.359.102.726.177 1.096.224h192c.33-.043.656-.11.976-.2a7.449 7.449 0 0 0 8.998-5.476l.01-.044a47.83 47.83 0 0 1 32.296-32.296 7.897 7.897 0 0 0 5.488-8.8 8.07 8.07 0 0 0 .232-1.184v-64a7.223 7.223 0 0 0-.24-1.184 7.887 7.887 0 0 0-5.488-8.8 47.784 47.784 0 0 1-32.28-32.304 7.904 7.904 0 0 0-8.864-5.488 7.605 7.605 0 0 0-1.128-.224H80a7.558 7.558 0 0 0-1.192.24 7.904 7.904 0 0 0-8.8 5.488 47.832 47.832 0 0 1-32.296 32.288 7.897 7.897 0 0 0-5.488 8.8 8.076 8.076 0 0 0-.224 1.184v64c.046.376.121.748.224 1.112a7.92 7.92 0 0 0 5.488 8.88zM48 238.193a63.481 63.481 0 0 0 35.248-35.248h185.496A63.498 63.498 0 0 0 304 238.193v57.504a63.554 63.554 0 0 0-35.248 35.248H83.248A63.554 63.554 0 0 0 48 295.697v-57.504z"/><path d="M176 314.945c26.51 0 48-21.49 48-48s-21.49-48-48-48-48 21.49-48 48c.026 26.499 21.501 47.974 48 48zm0-80c17.673 0 32 14.327 32 32s-14.327 32-32 32-32-14.327-32-32 14.327-32 32-32zM88 278.945c6.627 0 12-5.373 12-12s-5.373-12-12-12-12 5.373-12 12c0 6.628 5.373 12 12 12zm0-16a4 4 0 1 1 0 8 4 4 0 0 1 0-8zM264 278.945c6.627 0 12-5.373 12-12s-5.373-12-12-12-12 5.373-12 12c0 6.628 5.373 12 12 12zm0-16a4 4 0 1 1 0 8 4 4 0 0 1 0-8z"/>
</symbol>
<symbol id="pin" viewBox="0 0 512 512"><path d="M256 0C161.896 0 85.333 76.563 85.333 170.667c0 28.25 7.063 56.26 20.49 81.104L246.667 506.5c1.875 3.396 5.448 5.5 9.333 5.5s7.458-2.104 9.333-5.5l140.896-254.813c13.375-24.76 20.438-52.771 20.438-81.021C426.667 76.563 350.104 0 256 0zm0 256c-47.052 0-85.333-38.281-85.333-85.333S208.948 85.334 256 85.334s85.333 38.281 85.333 85.333S303.052 256 256 256z"/>
</symbol>
<symbol id="report"><defs><clipPath id="b" clipPathUnits="userSpaceOnUse"><path d="M0 512h512V0H0Z"/></clipPath></defs><mask id="a"><rect width="100%" height="100%" fill="#fff"/><path d="M0 0c5.52 0 10-4.48 10-10S5.52-20 0-20s-10 4.48-10 10S-5.52 0 0 0" style="fill:#fff;fill-opacity:1;fill-rule:nonzero;stroke:none" transform="matrix(1.33333 0 0 -1.33333 333.333 213.333)"/><path d="M0 0c5.52 0 10-4.48 10-10S5.52-20 0-20s-10 4.48-10 10S-5.52 0 0 0" style="fill:#fff;fill-opacity:1;fill-rule:nonzero;stroke:none" transform="matrix(1.33333 0 0 -1.33333 333.333 266.667)"/></mask><g mask="url(#a)"><g clip-path="url(#b)" transform="matrix(1.33333 0 0 -1.33333 0 682.667)"><path d="M0 0c5.52 0 10-4.48 10-10S5.52-20 0-20s-10 4.48-10 10S-5.52 0 0 0" style="fill:#000;fill-opacity:1;fill-rule:nonzero;stroke:none" transform="translate(250 352)"/><path d="M0 0c5.52 0 10-4.48 10-10S5.52-20 0-20s-10 4.48-10 10S-5.52 0 0 0" style="fill:#000;fill-opacity:1;fill-rule:nonzero;stroke:none" transform="translate(250 312)"/><path d="M0 0h-100v100" style="fill:none;stroke:#000;stroke-width:20;stroke-linecap:round;stroke-linejoin:round;stroke-miterlimit:10;stroke-dasharray:none;stroke-opacity:1" transform="translate(502 402)"/><path d="M0 0h106" style="fill:none;stroke:#000;stroke-width:20;stroke-linecap:round;stroke-linejoin:round;stroke-miterlimit:10;stroke-dasharray:none;stroke-opacity:1" transform="translate(256 442)"/><path d="M0 0h106" style="fill:none;stroke:#000;stroke-width:20;stroke-linecap:round;stroke-linejoin:round;stroke-miterlimit:10;stroke-dasharray:none;stroke-opacity:1" transform="translate(256 402)"/><path d="M0 0c0-48.38-34.36-88.74-80-98-6.46-1.31-13.15-2-20-2-55.23 0-100 44.77-100 100s44.77 100 100 100c6.85 0 13.54-.69 20-2C-34.36 88.74 0 48.38 0 0Z" style="fill:none;stroke:#000;stroke-width:20;stroke-linecap:round;stroke-linejoin:round;stroke-miterlimit:10;stroke-dasharray:none;stroke-opacity:1" transform="translate(210 342)"/><path d="M0 0c-33.09 0-60 26.91-60 60" style="fill:none;stroke:#000;stroke-width:20;stroke-linecap:round;stroke-linejoin:round;stroke-miterlimit:10;stroke-dasharray:none;stroke-opacity:1" transform="translate(110 282)"/><path d="M0 0v-100h100" style="fill:none;stroke:#000;stroke-width:20;stroke-linecap:round;stroke-linejoin:round;stroke-miterlimit:10;stroke-dasharray:none;stroke-opacity:1" transform="translate(110 442)"/><path d="M0 0v-214c0-11.05 8.95-20 20-20h332c11.05 0 20 8.95 20 20v372L272 258H20c-11.05 0-20-8.95-20-20v-42" style="fill:none;stroke:#000;stroke-width:20;stroke-linecap:round;stroke-linejoin:round;stroke-miterlimit:10;stroke-dasharray:none;stroke-opacity:1" transform="translate(130 244)"/><path d="M0 0c0-11.05-8.95-20-20-20s-20 8.95-20 20 8.95 20 20 20c5.52 0 10.52-2.24 14.14-5.86C-2.24 10.52 0 5.52 0 0Z" style="fill:none;stroke:#000;stroke-width:20;stroke-linecap:round;stroke-linejoin:round;stroke-miterlimit:10;stroke-dasharray:none;stroke-opacity:1" transform="translate(210 96)"/><path d="M0 0a19.938 19.938 0 0 0-5.86 14.14c0 11.05 8.95 20 20 20s20-8.95 20-20c0-5.52-2.24-10.52-5.86-14.14a19.938 19.938 0 0 0-14.14-5.86C8.62-5.86 3.62-3.62 0 0Z" style="fill:none;stroke:#000;stroke-width:20;stroke-linecap:round;stroke-linejoin:round;stroke-miterlimit:10;stroke-dasharray:none;stroke-opacity:1" transform="translate(251.86 161.86)"/><path d="M0 0c0-11.05-8.95-20-20-20s-20 8.95-20 20c0 5.52 2.24 10.52 5.86 14.14C-30.52 17.76-25.52 20-20 20-8.95 20 0 11.05 0 0Z" style="fill:none;stroke:#000;stroke-width:20;stroke-linecap:round;stroke-linejoin:round;stroke-miterlimit:10;stroke-dasharray:none;stroke-opacity:1" transform="translate(356 96)"/><path d="M0 0c0-11.05-8.95-20-20-20s-20 8.95-20 20 8.95 20 20 20S0 11.05 0 0Z" style="fill:none;stroke:#000;stroke-width:20;stroke-linecap:round;stroke-linejoin:round;stroke-miterlimit:10;stroke-dasharray:none;stroke-opacity:1" transform="translate(459 216)"/><path d="m0 0 47.72 51.72" style="fill:none;stroke:#000;stroke-width:20;stroke-linecap:round;stroke-linejoin:round;stroke-miterlimit:10;stroke-dasharray:none;stroke-opacity:1" transform="translate(204.14 110.14)"/><path d="m0 0 41.72-51.72" style="fill:none;stroke:#000;stroke-width:20;stroke-linecap:round;stroke-linejoin:round;stroke-miterlimit:10;stroke-dasharray:none;stroke-opacity:1" transform="translate(280.14 161.86)"/><path d="m0 0 80.8 86.72" style="fill:none;stroke:#000;stroke-width:20;stroke-linecap:round;stroke-linejoin:round;stroke-miterlimit:10;stroke-dasharray:none;stroke-opacity:1" transform="translate(347.1 112.64)"/><path d="M0 0h152" style="fill:none;stroke:#000;stroke-width:20;stroke-linecap:round;stroke-linejoin:round;stroke-miterlimit:10;stroke-dasharray:none;stroke-opacity:1" transform="translate(290 342)"/><path d="M0 0h152" style="fill:none;stroke:#000;stroke-width:20;stroke-linecap:round;stroke-linejoin:round;stroke-miterlimit:10;stroke-dasharray:none;stroke-opacity:1" transform="translate(290 302)"/></g></g>
</symbol>
<symbol id="right-chevron" viewBox="0 0 24 24"><path d="m17.414 10.586-8-8a2 2 0 0 0-2.828 2.828L13.172 12l-6.586 6.586a2 2 0 0 0 2.828 2.828l8-8a2 2 0 0 0 0-2.828z" data-name="Chevron"/>
</symbol>
<symbol id="star" viewBox="0 0 32 32"><path d="m29.911 13.75-6.229 6.072 1.471 8.576a1 1 0 0 1-1.451 1.054L16 25.403l-7.701 4.048a1 1 0 0 1-1.451-1.054l1.471-8.576-6.23-6.071a1 1 0 0 1 .555-1.706l8.609-1.25 3.85-7.802c.337-.683 1.457-.683 1.794 0l3.85 7.802 8.609 1.25a1.002 1.002 0 0 1 .555 1.706z"/>
</symbol>
</svg>