<?xml version="1.0" encoding="UTF-8"?>
<!DOCTYPE svg PUBLIC "-//W3C//DTD SVG 1.1//EN" "http://www.w3.org/Graphics/SVG/1.1/DTD/svg11.dtd">
<svg xmlns="http://www.w3.org/2000/svg" version="1.1" width="1080px" height="1080px" style="shape-rendering:geometricPrecision; text-rendering:geometricPrecision; image-rendering:optimizeQuality; fill-rule:evenodd; clip-rule:evenodd" xmlns:xlink="http://www.w3.org/1999/xlink">
<g><path style="opacity:0.688" fill="#000000" d="M 296.5,2.5 C 372.351,2.64907 448.184,2.64907 524,2.5C 525.419,3.46014 526.919,4.29347 528.5,5C 541.639,24.7803 554.139,44.9469 566,65.5C 573.279,76.4457 580.946,87.1123 589,97.5C 595.685,110.845 604.351,122.845 615,133.5C 629,155.5 643,177.5 657,199.5C 664.333,208.167 671.667,216.833 679,225.5C 688.899,246.311 694.232,268.311 695,291.5C 696.886,301.509 700.886,310.509 707,318.5C 714.38,336.257 722.547,353.591 731.5,370.5C 731.003,374.175 730.003,377.675 728.5,381C 721.767,385.133 714.433,387.466 706.5,388C 687.584,397.248 673.751,411.415 665,430.5C 652.445,458.557 647.278,487.891 649.5,518.5C 646.402,532.04 645.902,545.706 648,559.5C 648.915,570.824 651.249,581.824 655,592.5C 659.335,619.837 663.668,647.171 668,674.5C 670.866,686.261 674.032,697.928 677.5,709.5C 676.998,710.716 676.665,711.883 676.5,713C 677.796,715.761 678.963,718.595 680,721.5C 685.763,752.642 694.43,782.976 706,812.5C 722.444,843.401 736.777,875.401 749,908.5C 753.209,917.032 758.209,925.032 764,932.5C 766,937.167 768,941.833 770,946.5C 776.182,955.027 780.849,964.36 784,974.5C 792.307,988.118 799.807,1002.12 806.5,1016.5C 804.473,1019.22 802.973,1022.22 802,1025.5C 798.925,1027.83 795.425,1029.16 791.5,1029.5C 782.53,1028.19 773.53,1028.19 764.5,1029.5C 762.333,1036.18 759.499,1042.52 756,1048.5C 753.427,1049.81 751.094,1051.47 749,1053.5C 747.877,1056.25 746.377,1058.75 744.5,1061C 626.46,1061.17 508.46,1061.67 390.5,1062.5C 388.259,1061.97 386.759,1060.63 386,1058.5C 385.333,963.167 385.333,867.833 386,772.5C 387.318,769.059 389.818,767.725 393.5,768.5C 393.667,677.833 393.5,587.166 393,496.5C 389.64,494.35 388.807,491.517 390.5,488C 388,484.833 385.5,481.667 383,478.5C 382.699,475.026 381.866,471.692 380.5,468.5C 373.821,466.445 371.488,462.112 373.5,455.5C 367.343,454.023 365.677,450.523 368.5,445C 367.919,444.107 367.585,443.107 367.5,442C 370.337,436.012 372.004,429.845 372.5,423.5C 370.887,422.573 369.221,421.739 367.5,421C 365.686,417.858 363.519,415.025 361,412.5C 360.311,408.349 358.645,404.683 356,401.5C 354.996,396.853 355.662,392.519 358,388.5C 360.445,387.023 362.612,385.19 364.5,383C 361.739,380.148 359.739,376.815 358.5,373C 359.4,367.591 360.9,362.091 363,356.5C 368.021,354.482 372.187,351.315 375.5,347C 379.26,345.824 382.093,346.99 384,350.5C 384.87,349.892 385.37,349.059 385.5,348C 384.556,345.278 383.223,342.778 381.5,340.5C 378.579,339.457 376.079,337.79 374,335.5C 373.204,331.245 373.371,327.079 374.5,323C 373.167,321.667 371.833,320.333 370.5,319C 367.911,319.179 365.411,320.013 363,321.5C 359.823,319.65 356.657,317.817 353.5,316C 350.691,314.412 350.025,312.245 351.5,309.5C 349.829,307.49 349.162,305.157 349.5,302.5C 347.143,302.663 344.81,302.497 342.5,302C 339.222,299.218 336.555,296.051 334.5,292.5C 333.914,292.709 333.414,293.043 333,293.5C 329.589,292.707 326.089,292.207 322.5,292C 319.886,287.833 318.552,283.5 318.5,279C 319.935,275.738 321.935,272.904 324.5,270.5C 324.167,269.167 323.833,267.833 323.5,266.5C 324.795,263.729 325.795,260.896 326.5,258C 326.167,256.833 325.833,255.667 325.5,254.5C 320.578,252.008 317.578,248.008 316.5,242.5C 310.94,239.862 309.107,235.529 311,229.5C 312.028,227.156 312.694,224.823 313,222.5C 309.563,219.8 305.897,217.466 302,215.5C 296.522,217.005 292.189,215.338 289,210.5C 286.263,211.61 283.429,211.777 280.5,211C 272.954,207.23 271.287,201.897 275.5,195C 280.708,193.603 286.041,193.103 291.5,193.5C 291.333,131.499 291.5,69.4991 292,7.5C 293.025,5.31305 294.525,3.64638 296.5,2.5 Z M 301.5,12.5 C 375.17,12.1667 448.836,12.5 522.5,13.5C 535.404,32.2946 547.571,51.628 559,71.5C 569.164,85.824 578.83,100.491 588,115.5C 594.248,124.419 601.248,132.752 609,140.5C 623.931,165.376 639.598,189.71 656,213.5C 662.669,220.18 668.669,227.514 674,235.5C 680.733,252.496 684.399,270.162 685,288.5C 687.528,301.095 692.194,312.762 699,323.5C 706.215,339.651 713.715,355.651 721.5,371.5C 721.43,372.772 721.097,373.938 720.5,375C 704.836,377.661 691.169,384.327 679.5,395C 675.306,399.194 671.14,403.36 667,407.5C 664.083,415.005 660.416,422.005 656,428.5C 648.444,444.891 643.61,462.058 641.5,480C 639.954,500.652 638.621,521.318 637.5,542C 637.356,560.029 640.189,577.529 646,594.5C 650.117,621.869 654.45,649.202 659,676.5C 665.614,699.819 670.947,723.485 675,747.5C 681.665,771.162 689.332,794.496 698,817.5C 707.496,835.159 716.496,853.159 725,871.5C 730.088,886.436 735.754,901.102 742,915.5C 746.241,923.645 751.241,931.312 757,938.5C 769.284,964.567 782.118,990.234 795.5,1015.5C 795.833,1018.5 794.5,1019.83 791.5,1019.5C 780.755,1018.02 770.088,1018.19 759.5,1020C 755.708,1025.7 752.874,1031.87 751,1038.5C 746.667,1042.34 742.834,1046.67 739.5,1051.5C 624.502,1052.5 509.502,1052.83 394.5,1052.5C 394.5,960.833 394.5,869.167 394.5,777.5C 398.683,778.154 401.516,776.488 403,772.5C 403.667,679.5 403.667,586.5 403,493.5C 400.41,489.844 398.41,485.844 397,481.5C 391.223,476.548 389.723,470.548 392.5,463.5C 391.067,460.007 388.4,458.34 384.5,458.5C 386.203,453.478 384.536,449.812 379.5,447.5C 378.544,446.135 377.878,444.635 377.5,443C 378.962,437.323 380.796,431.823 383,426.5C 383.667,424.833 383.667,423.167 383,421.5C 378.667,417.167 374.333,412.833 370,408.5C 370.544,403.293 368.711,399.293 364.5,396.5C 368.899,392.432 372.565,387.765 375.5,382.5C 374.428,378.598 372.095,375.764 368.5,374C 369.167,372.667 369.833,371.333 370.5,370C 369.233,368.204 369.233,366.371 370.5,364.5C 373.053,362.403 375.386,360.07 377.5,357.5C 382.136,361.001 387.136,361.835 392.5,360C 393.293,358.915 393.96,357.748 394.5,356.5C 394.415,352.61 394.248,348.61 394,344.5C 391.893,340.619 390.059,336.619 388.5,332.5C 386.1,331.915 384.1,330.748 382.5,329C 385.676,323.74 385.01,319.073 380.5,315C 377.833,313 375.167,311 372.5,309C 369.563,308.639 366.73,309.139 364,310.5C 362.342,308.532 360.675,306.532 359,304.5C 358.667,301.833 358.333,299.167 358,296.5C 354.494,294.332 350.661,293.165 346.5,293C 344.174,283.819 338.174,280.152 328.5,282C 332.471,280.12 334.637,276.953 335,272.5C 336.025,266.825 336.525,260.992 336.5,255C 335.164,250.327 332.331,246.827 328,244.5C 327.032,239.551 324.365,235.884 320,233.5C 319.551,230.906 320.551,228.906 323,227.5C 323.701,224.072 323.368,220.738 322,217.5C 318.798,215.602 315.965,213.269 313.5,210.5C 310.056,209.301 306.889,207.634 304,205.5C 302.667,206.167 301.333,206.833 300,207.5C 298.833,206.333 297.667,205.167 296.5,204C 299.102,203.065 300.602,201.232 301,198.5C 301.5,136.501 301.667,74.5009 301.5,12.5 Z"/></g>
</svg>
