<svg xmlns="http://www.w3.org/2000/svg" width="400.684" height="400.636" viewBox="0 0 400.684 400.636">
  <g id="svgg" transform="translate(0.293 0.522)">
    <path id="path0" d="M174.609,1.194c-163.593,21.315-233.018,220.491-118,338.54C162.584,448.5,347.8,403.651,391.657,258.594c42.015-138.953-73.621-276.088-217.048-257.4m88.672,171.853L209.77,226.563H190.23l-53.511-53.516L83.207,119.531H316.793l-53.512,53.516m-153.321,66.6L73.438,276.17V130.08L109.96,166.6l36.522,36.522L109.96,239.647m216.6-36.328V276.17l-36.522-36.522L253.52,203.127,289.843,166.8c19.977-19.981,36.412-36.329,36.521-36.329s.2,32.782.2,72.85M200,240.625h15.917l13.737-13.66L243.39,213.3l33.575,33.582,33.575,33.582H89.46l33.575-33.582L156.61,213.3l13.736,13.66,13.737,13.66H200" fill="#f9f9f9" fill-rule="evenodd"/>
  </g>
</svg>
